HIERARCHY
ROOT pelvis
{
  OFFSET 0 100 0
  CHANNELS 6 Xposition Yposition Zposition Zrotation Xrotation Yrotation
  JOINT pelvis_right_femur
  {
    OFFSET -10.78128 -3.44521 -0.5502486
    CHANNELS 3 Zrotation Xrotation Yrotation
    JOINT right_femur_tibia
    {
      OFFSET -0.8047443 -44.0398 -0.1307829
      CHANNELS 3 Zrotation Xrotation Yrotation
      JOINT right_tibia_foot
      {
        OFFSET 3.006224 -47.83518 -5
        CHANNELS 3 Zrotation Xrotation Yrotation
        End Site
        {
          OFFSET 0 -5 15
        }
      }
    }
  }
  JOINT pelvis_left_femur
  {
    OFFSET 10.78128 -3.44521 -0.5502486
    CHANNELS 3 Zrotation Xrotation Yrotation
    JOINT left_femur_tibia
    {
      OFFSET 0.8047443 -44.0398 -0.1307829
      CHANNELS 3 Zrotation Xrotation Yrotation
      JOINT left_tibia_foot
      {
        OFFSET -4.370144 -48.10324 -4.275266
        CHANNELS 3 Zrotation Xrotation Yrotation
        End Site
        {
          OFFSET 0 -5 15
        }
      }
    }
  }
  JOINT pelvis_spine1
  {
    OFFSET 0 6.468898 -3.129235
    CHANNELS 3 Zrotation Xrotation Yrotation
    JOINT spine1
    {
      OFFSET 0 23.15396 4.99043
      CHANNELS 3 Zrotation Xrotation Yrotation
      JOINT spine2
      {
        OFFSET 0 20.79997 -5.064912
        CHANNELS 3 Zrotation Xrotation Yrotation
        JOINT neck
        {
          OFFSET 0 14.38658 9.616178
          CHANNELS 3 Zrotation Xrotation Yrotation
          End Site
          {
            OFFSET 0 20 0
          }
        }
      }
      JOINT right_manubrium
      {
        OFFSET -5.722621 16.35077 3.967754
        CHANNELS 3 Zrotation Xrotation Yrotation
        JOINT right_clavicle
        {
          OFFSET -13.16364 1.694482 -4.693211
          CHANNELS 3 Zrotation Xrotation Yrotation
          JOINT right_humerus
          {
            OFFSET -28.5034 -0.3100689 -2.792744
            CHANNELS 3 Zrotation Xrotation Yrotation
            JOINT right_radius
            {
              OFFSET -25.15693 0.02248979 -1.271978
              CHANNELS 3 Zrotation Xrotation Yrotation
              End Site
              {
                OFFSET -15 0 0
              }
            }
          }
        }
      }
      JOINT left_manubrium
      {
        OFFSET 5.722621 16.35077 3.967754
        CHANNELS 3 Zrotation Xrotation Yrotation
        JOINT left_clavicle
        {
          OFFSET 13.16364 1.694482 -4.693211
          CHANNELS 3 Zrotation Xrotation Yrotation
          JOINT left_humerus
          {
            OFFSET 29.39168 -1.063119 -2.237045
            CHANNELS 3 Zrotation Xrotation Yrotation
            JOINT left_radius
            {
              OFFSET 24.59957 -0.9528479 0.9047498
              CHANNELS 3 Zrotation Xrotation Yrotation
              End Site
              {
                OFFSET 15 -0 -0
              }
            }
          }
        }
      }
    }
  }
}
MOTION
Frames: 15
Frame Time: 0.0416666666667
0 103.5113 0 0.5219383 -0.3806162 0.7770351 1.955015 -22.81079 4.72022 -0 32.34086 -0 -2.929227 -8.480562 -3.595995 -6.188572 11.74011 -18.14891 0 -5.566955 0 2.210617 -22.32647 20.97918 -3.395315 -1.486271 3.486186 1.627316 8.207159 -7.418175 1.356151 21.54344 7.794969 3.358139 -22.50142 9.631874 4.763433 -18.05694 10.43084 85.91278 33.75773 -18.22402 -0 0 15.57215 -13.44059 10.77008 7.790508 6.961919 -19.88824 -2.19462 -90.02968 28.73203 17.03064 0 0 -20.06603 3.166894 13.44283 10.78636
0.5724825 102.3571 3.422367 0.598058 -0.4068724 1.590202 1.75005 -22.23869 4.855114 -0 33.64734 -0 -2.603463 -8.558805 -3.617295 -6.292837 11.37666 -18.30522 0 -6.432034 0 2.150298 -22.4204 21.16177 -3.500776 -1.461814 3.529089 1.553861 8.106484 -7.310285 1.374951 21.56968 7.844301 3.35692 -22.41925 9.705011 4.884243 -18.05407 10.38884 85.56433 33.89418 -17.82211 -0 0 15.897 -13.56534 10.82771 7.932872 6.91813 -19.58476 -2.09675 -90.2572 29.04913 17.32047 0 0 -19.60878 2.773562 13.30941 11.30923
1.054835 101.1526 6.828137 0.3262158 0.008830266 2.261079 2.577833 -24.55967 4.751346 -0 28.84893 -0 -3.421354 -9.066998 -3.620036 -5.93871 12.60229 -18.00744 0 -3.880507 0 2.274402 -22.30962 20.62112 -3.175231 -1.532238 3.425656 1.866936 8.284715 -7.719333 1.308402 21.41603 7.735199 3.368352 -22.76875 9.538779 4.724412 -17.98012 10.52358 86.46521 33.94119 -19.21784 -0 0 14.95753 -12.80466 10.76267 7.319431 7.109732 -20.49367 -2.231361 -89.65113 28.48165 16.44931 0 0 -21.36913 3.763695 13.71312 10.04963
1.491826 99.87711 10.19906 0.1558757 0.2675048 2.855423 3.05978 -25.95453 4.658014 -0 25.96229 -0 -3.992117 -9.341983 -3.57868 -5.728454 13.33051 -17.86805 0 -2.676973 0 2.463152 -22.27447 20.35484 -2.986904 -1.593177 3.360635 2.05847 8.407302 -7.967562 1.261338 21.32161 7.666115 3.37873 -23.00888 9.431112 4.603199 -17.99605 10.61086 87.01034 33.93575 -20.02246 -0 0 14.43355 -12.33409 10.66826 6.962755 7.230986 -21.06507 -2.326648 -89.32589 28.07086 16.00297 0 0 -22.38132 4.449007 14.0013 9.177721
1.86213 98.54825 13.55055 -0.04532202 0.5655358 3.35596 3.652332 -27.56873 4.649543 -0 22.62067 -0 -4.535912 -9.750402 -3.593829 -5.487431 14.16367 -17.68175 0 -0.9266593 0 2.539548 -22.2075 19.98562 -2.763645 -1.640586 3.294584 2.279374 8.517107 -8.252324 1.215215 21.21142 7.593878 3.385557 -23.25312 9.320976 4.509453 -17.94042 10.70365 87.61696 33.98554 -20.9849 -0 0 13.79927 -11.79037 10.62657 6.533455 7.3642 -21.68228 -2.402903 -88.93659 27.70609 15.424 0 0 -23.60682 5.116188 14.25462 8.339666
2.172545 97.18695 16.92253 -0.2063883 0.7185008 3.775233 4.138896 -28.8255 4.599599 -0 19.8824 -0 -5.007227 -9.904698 -3.629321 -5.286343 14.87684 -17.42256 -0 0.993747 -0 2.52014 -22.05767 19.59286 -2.556918 -1.667207 3.230436 2.446721 8.641832 -8.48025 1.183283 21.13857 7.518205 3.384612 -23.41111 9.209935 4.380233 -17.86178 10.7794 88.20864 33.89311 -21.81855 -0 0 13.17589 -11.44128 10.601 6.196835 7.456641 -22.21824 -2.509548 -88.54266 27.30331 14.84309 0 0 -24.62974 5.707595 14.41875 7.579833
2.42454 95.83995 20.37983 -0.3277135 0.7198192 4.118719 4.562182 -29.76917 4.560495 -0 17.64033 -0 -5.325408 -9.851764 -3.740894 -5.118717 15.50387 -17.033 -0 3.572487 -0 2.263902 -21.77645 19.09011 -2.349251 -1.651009 3.170225 2.563299 8.766188 -8.657194 1.173016 21.10269 7.440241 3.37108 -23.45129 9.102982 4.241824 -17.68289 10.83384 88.80161 33.68835 -22.59339 -0 0 12.49059 -11.28985 10.65786 5.924912 7.503149 -22.66182 -2.63171 -88.09284 26.92722 14.15132 0 0 -25.54557 6.134241 14.43706 7.012375
2.624735 94.55778 23.99714 -0.3968514 0.5301087 4.394387 4.889935 -30.31313 4.487366 -0 16.0064 -0 -5.503921 -9.501845 -3.918653 -4.991796 16.01895 -16.48606 -0 6.834338 -0 1.77498 -21.33408 18.47803 -2.141235 -1.591086 3.112005 2.616563 8.905485 -8.770943 1.186231 21.11346 7.35486 3.343856 -23.35809 8.993544 4.069789 -17.41241 10.86616 89.40352 33.31518 -23.27585 -0 0 11.74017 -11.38755 10.78937 5.742533 7.49421 -23.01002 -2.789248 -87.58307 26.52993 13.35256 0 0 -26.30334 6.411394 14.30692 6.608344
2.78002 93.40164 27.85961 -0.4091329 0.1362043 4.609262 5.128558 -30.41486 4.396995 -0 14.98725 -0 -5.499647 -8.869131 -4.184474 -4.905301 16.39369 -15.75113 -0 10.97096 -0 0.9961458 -20.69368 17.73368 -1.927728 -1.476567 3.06098 2.601616 9.053834 -8.815407 1.22714 21.17326 7.261482 3.30032 -23.11114 8.883369 3.872962 -17.02384 10.87438 90.00515 32.77925 -23.86541 -0 0 10.91158 -11.75379 11.02472 5.652065 7.423181 -23.24507 -2.976048 -87.00528 26.13536 12.42271 0 0 -26.91062 6.489606 14.00023 6.429243
2.89875 92.43936 32.05807 -0.3606058 -0.4785862 4.769453 5.277286 -29.99992 4.285951 -0 14.5812 -0 -5.299262 -7.954595 -4.544475 -4.854418 16.57082 -14.79986 -0 16.08477 -0 -0.09021782 -19.81316 16.85735 -1.704021 -1.302084 3.024138 2.51234 9.214156 -8.781936 1.297813 21.28477 7.155665 3.238415 -22.6972 8.768727 3.646248 -16.51603 10.8597 90.59739 32.06807 -24.34086 -0 0 10.00947 -12.41414 11.37414 5.667117 7.283526 -23.35704 -3.193515 -86.36507 25.73483 11.37079 0 0 -27.34908 6.353992 13.50317 6.491293
2.990394 91.7481 36.68786 -0.2481837 -1.328058 4.878939 5.342939 -28.94688 4.171479 -0 14.77359 -0 -4.867397 -6.803595 -5.012239 -4.826114 16.43907 -13.59938 -0 22.30818 -0 -1.516333 -18.63373 15.85725 -1.464829 -1.058214 3.017215 2.340765 9.382604 -8.65634 1.401409 21.44918 7.032645 3.154777 -22.0978 8.647246 3.39329 -15.88727 10.82327 91.15098 31.18715 -24.66542 -0 0 9.058226 -13.39651 11.85848 5.80736 7.066534 -23.32024 -3.432467 -85.68089 25.34299 10.22523 0 0 -27.58924 5.963148 12.78905 6.847596
3.066573 91.41084 41.84129 -0.07201937 -2.416878 4.937535 5.336165 -27.06498 4.075725 -0 15.50146 -0 -4.178532 -5.514945 -5.587854 -4.788032 15.79996 -12.1219 -0 29.69044 -0 -3.287954 -17.08399 14.77372 -1.205038 -0.7378242 3.068198 2.078388 9.554787 -8.418131 1.539258 21.66411 6.884164 3.045544 -21.301 8.513066 3.116343 -15.16362 10.7695 91.61155 30.15406 -24.76832 -0 0 8.126585 -14.72602 12.49033 6.105114 6.763082 -23.10147 -3.676547 -85.0009 24.97596 9.074444 0 0 -27.56974 5.281398 11.83592 7.547418
3.142178 91.50164 47.58537 0.1556101 -3.703665 4.936213 5.282468 -24.10213 4.040667 -0 16.5606 -0 -3.234938 -4.328582 -6.235058 -4.668692 14.32333 -10.37692 -0 38.02454 -0 -5.346683 -15.1078 13.70959 -0.9229684 -0.3427547 3.226378 1.724422 9.71835 -8.044132 1.706658 21.91431 6.699665 2.907853 -20.32362 8.357715 2.826537 -14.42749 10.70903 91.87206 29.0401 -24.53167 -0 0 7.373948 -16.38405 13.26263 6.598071 6.370531 -22.66041 -3.887488 -84.43356 24.67475 8.12529 0 0 -27.19368 4.285746 10.6481 8.634151
3.236444 92.04342 53.91359 0.393384 -5.036351 4.848764 5.23017 -19.84537 4.119673 -0 17.45115 -0 -2.142443 -3.709636 -6.823296 -4.338868 11.56044 -8.475898 -0 46.45817 -0 -7.471732 -12.74819 12.87 -0.6275543 0.09572097 3.563762 1.305009 9.85163 -7.5255 1.88269 22.15659 6.469054 2.744967 -19.26367 8.168916 2.547129 -13.87414 10.66473 91.75597 28.01428 -23.79141 -0 0 7.103272 -18.22486 14.10741 7.303182 5.909631 -21.97972 -3.99687 -84.18639 24.50277 7.781807 0 0 -26.34134 3.027345 9.322567 10.07333
3.372169 92.93936 60.68743 0.5623022 -6.112658 4.627276 5.238923 -14.39187 4.335858 -0 17.37372 -0 -1.184809 -4.26637 -7.092923 -3.653746 7.179063 -6.684602 -0 53.1886 -0 -9.207664 -10.27366 12.53473 -0.3484641 0.4952347 4.142816 0.8929313 9.931674 -6.900075 2.022298 22.31492 6.193096 2.573833 -18.34522 7.935025 2.308807 -13.81945 10.67159 91.06454 27.3363 -22.40436 -0 0 7.7139 -19.89995 14.85561 8.164313 5.443677 -21.1228 -3.925198 -84.54728 24.50113 8.598076 0 0 -24.94011 1.709583 8.124607 11.64672
